<svg xmlns="http://www.w3.org/2000/svg" width="650.566" height="240" viewBox="0 0 650.566 240"><path d="M87.364 46.512h104.341v109.27h51.318V0H87.363v46.512zm218.57-15.372h-6.907l-5.951 9.052 4.595.014 8.263-9.066zm4.935 52.394h-22.604V67.621h19.457v-4.842h-19.457V48.316h22.294v-4.841h-28.215v44.9h28.525v-4.84zm29.708-9.406c-.575 3.701-1.741 6.297-3.5 7.787-1.757 1.49-4.282 2.237-7.57 2.237-3.66 0-6.507-1.441-8.542-4.32-2.037-2.883-3.053-6.762-3.053-11.639v-4.35c0-5.166 1.075-9.146 3.222-11.946 2.147-2.797 5.114-4.196 8.897-4.196 3.083 0 5.484.803 7.2 2.413 1.717 1.607 2.832 4.205 3.346 7.793h5.951c-.471-4.707-2.147-8.392-5.026-11.055-2.878-2.661-6.703-3.992-11.471-3.992-3.598 0-6.764.847-9.498 2.544-2.734 1.694-4.848 4.125-6.339 7.291-1.49 3.168-2.234 6.836-2.234 11.011v4.316c0 6.374 1.598 11.462 4.795 15.266s7.448 5.705 12.752 5.705c4.893 0 8.815-1.29 11.765-3.87 2.95-2.581 4.703-6.245 5.256-10.995h-5.951zm35.277-28.663c-2.746-1.737-5.916-2.605-9.514-2.605-3.537 0-6.677.878-9.422 2.635-2.744 1.758-4.868 4.293-6.367 7.602-1.502 3.31-2.25 7.124-2.25 11.44v3.239c.04 4.236.816 7.962 2.327 11.18s3.633 5.693 6.367 7.43c2.734 1.739 5.87 2.607 9.406 2.607 3.619 0 6.785-.864 9.497-2.59 2.716-1.728 4.811-4.23 6.292-7.51 1.481-3.279 2.22-7.118 2.22-11.519v-2.837c0-4.379-.739-8.218-2.22-11.518-1.48-3.3-3.593-5.818-6.336-7.554zm2.666 22.341c-.061 5.203-1.14 9.195-3.236 11.98-2.098 2.789-5.058 4.18-8.883 4.18-3.804 0-6.79-1.476-8.958-4.426-2.17-2.95-3.255-7.005-3.255-12.166v-3.3c.064-5.056 1.169-9.008 3.316-11.855 2.148-2.85 5.093-4.271 8.836-4.271 3.844 0 6.836 1.422 8.974 4.27s3.206 6.933 3.206 12.258v3.33zm37.267 15.728h-21.279v-40.06h-5.951v44.902h27.23v-4.842zm30.54 0h-22.603V67.621h19.457v-4.842h-19.457V48.316h22.294v-4.841h-28.215v44.9h28.525v-4.84zM305.38 113.472c-3.002-1.727-6.456-2.59-10.361-2.59h-12.675v44.9h12.426c4.03-.04 7.561-.915 10.593-2.62 3.033-1.707 5.368-4.152 7.001-7.34 1.636-3.186 2.452-6.897 2.452-11.132v-2.868c-.02-4.133-.85-7.792-2.483-10.978-1.633-3.187-3.952-5.644-6.953-7.372zm3.576 21.08c0 5.246-1.27 9.29-3.808 12.13-2.54 2.84-6.09 4.259-10.655 4.259h-6.228v-35.218h6.906c4.4.042 7.799 1.476 10.192 4.306 2.397 2.83 3.593 6.796 3.593 11.898v2.624zm10.873-21.697c-.06 2.962-1.049 5.778-2.96 8.45l3.24 2.22c1.56-1.252 2.839-2.902 3.839-4.948.995-2.047 1.504-4.098 1.525-6.154v-4.008h-5.644v4.44zm10.66 42.927h5.92v-44.9h-5.92v44.9zm42.204-10.145l-22.666-34.756h-5.951v44.901h5.951v-34.6l22.605 34.6h5.951v-44.9h-5.89v34.755zm20.849-26.347c2.044-2.788 5.052-4.182 9.02-4.182 5.961 0 9.498 2.98 10.608 8.941h5.921c-.638-4.398-2.384-7.796-5.243-10.192-2.858-2.394-6.63-3.59-11.318-3.59-5.715 0-10.15 1.858-13.307 5.58-3.156 3.722-4.733 8.965-4.733 15.728v3.917c.042 4.173.838 7.843 2.391 11.009 1.552 3.166 3.746 5.606 6.583 7.324 2.837 1.716 6.085 2.575 9.744 2.575 3.619 0 6.79-.54 9.514-1.62 2.724-1.08 4.846-2.708 6.369-4.888v-16.467h-16.282v4.841h10.392v10.06c-1.09 1.17-2.467 2-4.133 2.493-1.664.493-3.607.74-5.827.74-3.929 0-7.043-1.489-9.345-4.462-2.302-2.973-3.455-6.98-3.455-12.02v-3.673c.022-5.287 1.054-9.326 3.1-12.114zm38.182 15.737h19.457v-4.84h-19.457v-14.464h22.294v-4.842h-28.215v44.901h28.525v-4.841h-22.604v-15.914zm4.81-27.429l4.596.014 8.263-9.065h-6.907l-5.951 9.051zm50.623 38.04l-22.665-34.757h-5.952v44.901h5.952v-34.6l22.604 34.6h5.952v-44.9h-5.89v34.755zm13.682 10.144h5.92v-44.9h-5.92v44.9zm19.506-20.755h19.457v-4.84h-19.457v-14.464h22.295v-4.842h-28.216v44.901h28.526v-4.841h-22.605v-15.914zm52.474 6.292c0 3.248-.889 5.766-2.668 7.557-1.779 1.788-4.344 2.682-7.695 2.682-3.309 0-5.858-.899-7.646-2.699-1.79-1.8-2.685-4.322-2.685-7.57V110.88h-5.857v30.593c.04 4.647 1.52 8.296 4.44 10.948s6.836 3.978 11.748 3.978l1.575-.061c4.522-.331 8.103-1.84 10.746-4.534 2.644-2.694 3.973-6.158 3.996-10.394v-30.53h-5.954v30.438zm40.461-9.622c1.512-2.077 2.267-4.512 2.267-7.307 0-4.4-1.36-7.752-4.083-10.054-2.727-2.302-6.618-3.455-11.673-3.455h-14.865v44.901h5.952v-18.164h10.546l9.744 18.164h6.355v-.37l-10.546-19.059c2.69-1.027 4.792-2.579 6.303-4.656zm-13.306 1.08h-9.096v-17.054h9.068c3.121.021 5.51.774 7.167 2.257 1.657 1.481 2.483 3.614 2.483 6.393 0 2.556-.868 4.595-2.605 6.118-1.737 1.526-4.079 2.286-7.017 2.286zm49.067 5.644c-1.019-1.685-2.582-3.161-4.69-4.426-2.107-1.265-5.026-2.422-8.757-3.471-3.732-1.051-6.374-2.21-7.923-3.476-1.554-1.267-2.333-2.816-2.333-4.65 0-2.287.821-4.073 2.455-5.359 1.633-1.288 3.91-1.931 6.829-1.931 3.145 0 5.58.78 7.308 2.335 1.727 1.558 2.59 3.699 2.59 6.423h5.952c0-2.487-.662-4.78-1.99-6.878-1.324-2.096-3.196-3.741-5.609-4.933-2.417-1.192-5.167-1.788-8.251-1.788-4.525 0-8.2 1.154-11.025 3.468-2.826 2.312-4.239 5.238-4.239 8.772 0 3.126 1.155 5.752 3.469 7.88 2.314 2.127 6.008 3.922 11.086 5.382 4.05 1.171 6.848 2.359 8.388 3.562 1.544 1.202 2.314 2.903 2.314 5.102 0 2.202-.831 3.938-2.497 5.213-1.667 1.274-4.06 1.912-7.186 1.912-3.351 0-6.031-.786-8.036-2.36-2.004-1.573-3.004-3.716-3.004-6.428h-5.951c0 2.61.723 4.944 2.173 7 1.45 2.056 3.51 3.675 6.182 4.855 2.675 1.183 5.552 1.775 8.636 1.775 4.75 0 8.542-1.096 11.377-3.286 2.84-2.19 4.257-5.102 4.257-8.742 0-2.28-.507-4.266-1.525-5.951z" fill="#5a86dd"/><path d="M19.147 225.116V49.302H0V240h191.705v-14.884H19.147zM66.26 157.02c2.335 0 4.549-.53 6.64-1.59 2.09-1.062 3.761-2.484 5.015-4.267s1.931-3.664 2.037-5.637H74.38c-.171 1.91-1.042 3.503-2.612 4.775-1.57 1.275-3.407 1.91-5.508 1.91-3.036 0-5.371-1.07-7.007-3.214-1.633-2.145-2.45-5.2-2.45-9.172v-1.114c0-4.077.821-7.191 2.466-9.345 1.645-2.155 3.966-3.234 6.959-3.234 2.229 0 4.102.718 5.62 2.15 1.519 1.433 2.361 3.264 2.532 5.493h5.572c-.17-3.694-1.533-6.697-4.09-9.011-2.559-2.314-5.772-3.471-9.634-3.471-3.143 0-5.865.723-8.167 2.166-2.305 1.443-4.072 3.47-5.304 6.08-1.23 2.612-1.847 5.595-1.847 8.949v.988c0 5.435 1.387 9.718 4.156 12.848 2.772 3.13 6.5 4.696 11.194 4.696zm34.613 0c5.776 0 10.105-2.218 12.992-6.655l-3.598-2.802c-1.082 1.4-2.346 2.527-3.79 3.377-1.443.85-3.205 1.272-5.285 1.272-2.928 0-5.346-1.045-7.244-3.136-1.901-2.09-2.894-4.834-2.978-8.232h23.34v-2.453c0-5.496-1.24-9.722-3.724-12.672-2.485-2.95-5.965-4.426-10.445-4.426-2.739 0-5.28.758-7.627 2.276-2.345 1.519-4.17 3.619-5.477 6.306-1.305 2.685-1.958 5.738-1.958 9.155v1.082c0 5.137 1.465 9.241 4.393 12.308 2.932 3.068 6.731 4.6 11.401 4.6zm-6.719-28.293c1.613-1.73 3.61-2.595 5.987-2.595 2.462 0 4.417.824 5.86 2.469 1.443 1.645 2.25 3.963 2.42 6.958v.446H91.162c.38-3.121 1.38-5.546 2.992-7.278zm39.645 23.485c-2.42 0-4.368-.578-5.844-1.735s-2.267-2.722-2.373-4.698h-5.89c0 2.04.6 3.933 1.8 5.686 1.2 1.751 2.86 3.115 4.982 4.09 2.124.977 4.565 1.465 7.325 1.465 3.928 0 7.122-.927 9.584-2.785 2.464-1.857 3.694-4.326 3.694-7.405 0-1.846-.44-3.412-1.322-4.695-.88-1.284-2.234-2.385-4.06-3.298-1.825-.91-4.207-1.696-7.148-2.356-2.94-.657-4.973-1.347-6.097-2.07-1.126-.72-1.69-1.793-1.69-3.215 0-1.506.606-2.727 1.817-3.663 1.209-.934 2.886-1.401 5.031-1.401 2.08 0 3.805.584 5.175 1.753 1.368 1.166 2.054 2.558 2.054 4.17h5.923c0-3.14-1.216-5.721-3.647-7.737s-5.6-3.025-9.505-3.025c-3.715 0-6.768.976-9.154 2.929-2.39 1.954-3.584 4.341-3.584 7.164 0 1.7.42 3.164 1.258 4.396.838 1.232 2.133 2.293 3.886 3.184 1.75.892 4.117 1.655 7.1 2.293 2.982.636 5.073 1.397 6.275 2.277 1.196.88 1.797 2.116 1.797 3.71 0 1.506-.673 2.71-2.02 3.614-1.35.901-3.138 1.352-5.367 1.352zm27.354-30.283h-5.89v34.455h5.89v-34.455z"/></svg>